<svg width="250" height="148" viewBox="0 0 250 148" fill="none" xmlns="http://www.w3.org/2000/svg">
                    <g clipPath="url(#clip0_2222_26086)">
                        <path d="M130.633 41.0091C129.212 35.4301 122.125 11.1458 103.766 0.0844891C103.657 0.0314513 103.534 0.012512 103.414 0.0300954C103.294 0.0476787 103.182 0.101006 103.093 0.183106C103.003 0.265205 102.941 0.372267 102.913 0.490379C102.885 0.608491 102.894 0.732148 102.938 0.845265C105.713 6.40009 113.593 24.2178 110.055 41.8544C110.055 41.8544 119.767 37.5494 129.835 41.6914C129.935 41.7274 130.044 41.7362 130.148 41.717C130.253 41.6977 130.351 41.6511 130.433 41.5818C130.514 41.5125 130.575 41.423 130.61 41.3224C130.645 41.2218 130.653 41.1138 130.633 41.0091Z" fill="#01E59B" />
                        <path d="M98.3118 55.8079C103.706 34.1562 95.766 15.3543 95.5846 14.9558C90.8559 10.9829 83.7386 6.19487 74.8012 3.75558C74.6786 3.73536 74.5527 3.75329 74.4407 3.80702C74.3287 3.86076 74.236 3.94765 74.1752 4.05585C74.1144 4.16405 74.0885 4.28833 74.1009 4.41177C74.1134 4.53521 74.1636 4.65187 74.2448 4.7458C80.4551 10.5784 100.047 32.369 86.3992 64.5931C86.3624 64.7074 86.3605 64.8301 86.3939 64.9454C86.4273 65.0608 86.4943 65.1636 86.5865 65.2408C86.6787 65.3179 86.7917 65.3658 86.9113 65.3784C87.031 65.3911 87.1516 65.3677 87.2579 65.3115C92.1862 62.1175 107.031 54.0751 120.045 63.1983C120.14 63.2549 120.248 63.2844 120.359 63.2836C120.469 63.2829 120.578 63.2518 120.672 63.1939C120.766 63.136 120.842 63.0535 120.893 62.9553C120.943 62.857 120.966 62.7469 120.958 62.6368C120.643 60.3967 119.948 55.7717 118.938 51.5754C111.774 50.3398 104.407 51.8515 98.3118 55.8079Z" fill="#01E59B" />
                        <path d="M107.981 44.493C112.057 26.5123 106.772 13.869 106.772 13.8207C102.369 9.7451 95.8387 4.25071 90.6444 2.17972C90.527 2.14684 90.4025 2.15009 90.2871 2.18908C90.1717 2.22808 90.0708 2.30093 89.9976 2.39818C89.9244 2.49543 89.8823 2.61251 89.8768 2.73405C89.8714 2.85559 89.9029 2.97598 89.9671 3.07936C93.8069 8.03644 104.77 24.9424 101.057 52.4871C101.057 52.4871 113.526 45.8455 126.098 53.0306C126.195 53.0788 126.303 53.1 126.411 53.0922C126.519 53.0843 126.623 53.0476 126.712 52.9859C126.801 52.9242 126.872 52.8398 126.917 52.7414C126.962 52.6431 126.98 52.5344 126.968 52.4268C126.411 48.5238 125.397 44.6997 123.945 41.0333C114.094 40.1941 107.981 44.493 107.981 44.493Z" fill="#01E59B" />
                        <path d="M30.6156 74.5857V78.8122C30.6156 79.0006 30.5784 79.1872 30.506 79.3612C30.4336 79.5352 30.3275 79.6932 30.1937 79.8262C30.06 79.9592 29.9013 80.0644 29.7267 80.136C29.5521 80.2075 29.3651 80.2439 29.1764 80.2432H19.5013V110.07H11.1806V80.2432H1.46921C1.2805 80.2439 1.09349 80.2075 0.918917 80.136C0.744342 80.0644 0.585605 79.9592 0.451885 79.8262C0.318166 79.6932 0.212119 79.5352 0.139719 79.3612C0.0673198 79.1872 0.0300276 79.0006 0.0300293 78.8122V74.5857C0.0300293 74.2046 0.181618 73.8391 0.451516 73.5696C0.721415 73.3001 1.08752 73.1487 1.46921 73.1487H29.2067C29.5831 73.1566 29.9414 73.3115 30.2048 73.5801C30.4682 73.8488 30.6157 74.2097 30.6156 74.5857Z" fill="#01E59B" />
                        <path d="M48.9382 87.6274C48.9008 87.8138 48.8267 87.9908 48.72 88.1482C48.6134 88.3056 48.4764 88.4402 48.3171 88.5442C48.1578 88.6482 47.9793 88.7195 47.7922 88.7538C47.605 88.7882 47.4128 88.7851 47.2269 88.7445L46.1385 88.515C45.1186 88.3161 44.0815 88.2189 43.0424 88.2252C42.4355 88.2302 41.8295 88.2746 41.2283 88.3581C40.6971 88.411 40.1713 88.5079 39.6561 88.6479V110.058H31.7043V83.5338C33.3584 82.9731 35.0419 82.5034 36.7475 82.1269C38.876 81.6598 41.0506 81.435 43.2298 81.4567C43.6531 81.4567 44.1672 81.4567 44.7779 81.5352C45.3886 81.6137 45.9873 81.662 46.592 81.7526C47.1967 81.8432 47.8014 81.9458 48.4061 82.0726L48.5996 82.1149C48.9677 82.1945 49.2895 82.4164 49.4945 82.732C49.6995 83.0476 49.7713 83.4313 49.6941 83.7994L48.9382 87.6274Z" fill="#01E59B" />
                        <path d="M63.7959 81.2998C65.7813 81.2484 67.7621 81.5175 69.6615 82.0968C71.0834 82.5419 72.3746 83.3275 73.4227 84.3851C74.3802 85.4085 75.0679 86.6533 75.4243 88.0078C75.8355 89.5539 76.0389 91.1479 76.029 92.7476V109.261C74.8861 109.509 73.3078 109.798 71.2821 110.137C68.8448 110.504 66.3817 110.674 63.9169 110.644C62.2598 110.66 60.6057 110.5 58.9826 110.167C57.6219 109.895 56.3276 109.359 55.1729 108.591C54.1147 107.879 53.2669 106.897 52.7179 105.747C52.1122 104.39 51.8208 102.915 51.8653 101.43C51.8193 99.9826 52.1594 98.549 52.8509 97.276C53.4877 96.1619 54.3968 95.2271 55.4934 94.559C56.6632 93.8612 57.9432 93.3671 59.2789 93.0978C60.7344 92.7923 62.2179 92.6406 63.7052 92.6449C64.6221 92.6381 65.5386 92.6824 66.4506 92.7777C67.108 92.8388 67.7592 92.954 68.3977 93.1219V92.3733C68.4278 91.7782 68.3361 91.1831 68.1282 90.6246C67.9202 90.0661 67.6004 89.5558 67.1883 89.1249C66.382 88.3198 64.9711 87.9173 62.9554 87.9173C61.6157 87.9164 60.2778 88.0132 58.9523 88.2071C58.275 88.3098 57.6401 88.4305 57.0596 88.5754C56.8657 88.624 56.6639 88.6319 56.4669 88.5986C56.2698 88.5654 56.0818 88.4916 55.9147 88.3821C55.7476 88.2726 55.6051 88.1296 55.4962 87.9623C55.3872 87.795 55.3143 87.607 55.2818 87.4101L54.7315 83.9142C54.6725 83.5594 54.75 83.1954 54.9485 82.8952C55.147 82.5951 55.4519 82.3811 55.8019 82.296L56.2614 82.1873C56.9508 82.0303 57.7067 81.8855 58.529 81.7647C59.3514 81.6439 60.2101 81.5352 61.1111 81.4447C62.0121 81.3541 62.8707 81.2998 63.7959 81.2998ZM64.4369 104.521C65.217 104.521 65.9608 104.521 66.6743 104.467C67.2453 104.445 67.8147 104.39 68.3796 104.304V98.2661C67.9039 98.1694 67.4235 98.0969 66.9404 98.0488C66.356 97.9846 65.7686 97.9504 65.1807 97.9462C64.477 97.9424 63.774 97.9868 63.0764 98.079C62.4729 98.1468 61.8857 98.3184 61.3409 98.5862C60.8689 98.8149 60.4645 99.1625 60.1677 99.5945C59.8681 100.073 59.7186 100.63 59.7384 101.195C59.7384 102.438 60.1557 103.296 60.9962 103.779C62.06 104.318 63.2452 104.573 64.4369 104.521Z" fill="#01E59B" />
                        <path d="M107.956 109.152C107.249 109.364 106.426 109.569 105.538 109.756C104.649 109.943 103.639 110.124 102.629 110.263C101.619 110.402 100.585 110.523 99.5329 110.614C98.4807 110.704 97.483 110.746 96.5094 110.746C94.4032 110.781 92.308 110.437 90.3234 109.732C88.5994 109.124 87.0349 108.135 85.7462 106.84C84.4574 105.545 83.4776 103.976 82.8796 102.251C82.1976 100.312 81.864 98.2682 81.8939 96.2133C81.8667 94.1313 82.1541 92.0571 82.7466 90.0607C83.2465 88.3595 84.0811 86.7748 85.2016 85.3995C86.2575 84.1277 87.6004 83.1241 89.12 82.4711C90.8001 81.7686 92.6082 81.4231 94.4293 81.4567C95.4242 81.446 96.4168 81.5534 97.3863 81.7768C98.2915 82.0025 99.1756 82.3055 100.029 82.6824V71.2105C100.029 70.8698 100.151 70.5403 100.372 70.2813C100.594 70.0223 100.901 69.8509 101.238 69.7977L106.312 68.9765C106.517 68.9443 106.727 68.9568 106.927 69.0132C107.127 69.0697 107.312 69.1687 107.47 69.3035C107.628 69.4384 107.755 69.6058 107.842 69.7943C107.929 69.9827 107.974 70.1879 107.975 70.3954L107.956 109.152ZM89.9848 95.8691C89.9848 98.3205 90.5351 100.291 91.6356 101.78C92.7362 103.27 94.3729 104.014 96.5457 104.014C97.2532 104.014 97.9124 104.014 98.5171 103.936C99.1218 103.857 99.6176 103.821 100.011 103.749V89.318C99.4066 88.9537 98.7498 88.6849 98.0635 88.5211C97.2751 88.3074 96.4617 88.1998 95.6447 88.201C91.8674 88.1809 89.9808 90.7269 89.9848 95.839V95.8691Z" fill="#01E59B" />
                        <path d="M114.094 96.2616C114.049 94.0346 114.437 91.8198 115.237 89.7407C115.924 88.0013 116.952 86.4166 118.261 85.0795C119.478 83.8498 120.941 82.8892 122.554 82.2598C124.139 81.6259 125.83 81.3 127.537 81.2998C131.524 81.2998 134.672 82.5073 136.982 84.9225C139.292 87.3376 140.447 90.9141 140.447 95.6518C140.447 96.1147 140.429 96.6219 140.393 97.1733C140.356 97.7228 140.32 98.2119 140.29 98.6345H122.258C122.328 99.4115 122.57 100.163 122.967 100.836C123.363 101.508 123.904 102.084 124.55 102.523C125.904 103.481 127.718 103.96 129.992 103.96C131.432 103.962 132.87 103.828 134.285 103.561C134.987 103.429 135.622 103.284 136.196 103.121C136.391 103.064 136.595 103.049 136.796 103.078C136.996 103.106 137.189 103.176 137.36 103.284C137.532 103.392 137.678 103.535 137.79 103.703C137.902 103.872 137.977 104.062 138.01 104.262L138.615 107.884C138.67 108.218 138.605 108.559 138.432 108.85C138.26 109.14 137.991 109.361 137.672 109.472L137.067 109.654C136.288 109.885 135.496 110.072 134.696 110.215C133.826 110.372 132.882 110.505 131.897 110.614C130.905 110.72 129.907 110.772 128.91 110.771C126.661 110.821 124.424 110.442 122.318 109.654C120.566 108.985 118.983 107.94 117.68 106.592C116.442 105.277 115.513 103.704 114.959 101.985C114.368 100.136 114.076 98.2034 114.094 96.2616ZM132.761 93.2427C132.726 92.5731 132.611 91.9102 132.417 91.2683C132.228 90.6475 131.919 90.0693 131.51 89.5656C131.081 89.0626 130.554 88.6518 129.962 88.3581C129.237 88.0171 128.441 87.8536 127.64 87.8811C126.852 87.8606 126.069 88.0153 125.348 88.3339C124.734 88.6187 124.188 89.0303 123.745 89.5415C123.313 90.0535 122.979 90.641 122.76 91.2743C122.532 91.9243 122.362 92.5931 122.252 93.2729L132.761 93.2427Z" fill="#01E59B" />
                        <path d="M156.067 73.1487C156.327 73.1485 156.582 73.2192 156.805 73.3533C157.027 73.4874 157.209 73.6797 157.33 73.9095C157.875 74.9319 158.479 76.1254 159.144 77.4899C159.979 79.2087 160.852 81.0724 161.763 83.081C162.674 85.0896 163.575 87.1404 164.466 89.2335C165.357 91.3307 166.193 93.3011 166.975 95.1446C167.782 93.2971 168.62 91.3267 169.491 89.2335C170.362 87.1404 171.263 85.0896 172.194 83.081C173.101 81.0684 173.974 79.2047 174.812 77.4899C175.477 76.1254 176.082 74.9319 176.626 73.9095C176.749 73.6796 176.932 73.4875 177.156 73.3535C177.379 73.2195 177.635 73.1487 177.896 73.1487H183.338C183.681 73.1474 184.012 73.2684 184.273 73.4899C184.533 73.7114 184.706 74.0187 184.759 74.3562C185.05 76.4876 185.322 78.8122 185.576 81.3481C185.878 84.3872 186.144 87.547 186.374 90.8276C186.604 94.1081 186.817 97.4008 187.015 100.705C187.208 104.01 187.378 107.118 187.523 110.028H179.432C179.323 106.441 179.18 102.535 179.003 98.3085C178.825 94.082 178.559 89.8212 178.205 85.5263C177.564 87.0156 176.85 88.668 176.064 90.4834C175.278 92.2988 174.502 94.1102 173.736 95.9175C172.97 97.7289 172.23 99.4617 171.517 101.116C170.803 102.77 170.198 104.179 169.702 105.343H163.891C163.391 104.171 162.787 102.762 162.077 101.116C161.368 99.4698 160.628 97.7369 159.858 95.9175C159.092 94.1142 158.316 92.3028 157.53 90.4834C156.744 88.664 156.03 87.0116 155.389 85.5263C155.03 89.8252 154.764 94.086 154.591 98.3085C154.418 102.531 154.275 106.437 154.162 110.028H146.053C146.198 107.118 146.367 104.01 146.561 100.705C146.754 97.4008 146.968 94.1081 147.202 90.8276C147.431 87.543 147.697 84.3832 148 81.3481C148.254 78.8122 148.526 76.4816 148.816 74.3562C148.87 74.0187 149.042 73.7114 149.303 73.4899C149.564 73.2684 149.895 73.1474 150.237 73.1487H156.067Z" fill="white" />
                        <path d="M204.502 81.2998C206.488 81.2484 208.469 81.5175 210.368 82.0968C211.79 82.5419 213.081 83.3275 214.129 84.3851C215.087 85.4085 215.774 86.6533 216.131 88.0078C216.542 89.5539 216.745 91.1479 216.735 92.7476V109.261C215.593 109.509 214.014 109.798 211.989 110.137C209.551 110.504 207.088 110.674 204.623 110.644C202.966 110.66 201.312 110.5 199.689 110.167C198.328 109.895 197.034 109.359 195.879 108.591C194.821 107.879 193.973 106.897 193.424 105.747C192.819 104.39 192.527 102.915 192.572 101.43C192.526 99.9826 192.866 98.549 193.557 97.276C194.194 96.1619 195.103 95.2271 196.2 94.559C197.37 93.8612 198.65 93.3671 199.985 93.0978C201.441 92.7923 202.924 92.6406 204.412 92.6449C205.329 92.6381 206.245 92.6824 207.157 92.7777C207.815 92.8388 208.466 92.954 209.104 93.1219V92.3733C209.134 91.7782 209.043 91.1831 208.835 90.6246C208.627 90.0661 208.307 89.5558 207.895 89.1249C207.089 88.3198 205.678 87.9173 203.662 87.9173C202.322 87.9164 200.984 88.0132 199.659 88.2071C198.982 88.3098 198.347 88.4305 197.766 88.5754C197.572 88.624 197.37 88.6319 197.173 88.5986C196.976 88.5654 196.788 88.4916 196.621 88.3821C196.454 88.2726 196.312 88.1296 196.203 87.9623C196.094 87.795 196.021 87.607 195.988 87.4101L195.432 83.9142C195.376 83.5589 195.456 83.1956 195.655 82.896C195.854 82.5964 196.159 82.3823 196.508 82.296L196.968 82.1873C197.657 82.0303 198.413 81.8855 199.236 81.7647C200.058 81.6439 200.911 81.5352 201.818 81.4447C202.725 81.3541 203.577 81.2998 204.502 81.2998ZM205.107 104.521C205.893 104.521 206.637 104.521 207.351 104.467C207.922 104.445 208.491 104.39 209.056 104.304V98.2661C208.58 98.1694 208.1 98.0969 207.617 98.0488C207.032 97.9846 206.445 97.9504 205.857 97.9462C205.153 97.9422 204.45 97.9866 203.753 98.079C203.149 98.1468 202.562 98.3184 202.017 98.5862C201.543 98.8123 201.138 99.1604 200.844 99.5945C200.544 100.073 200.395 100.63 200.415 101.195C200.415 102.438 200.832 103.296 201.672 103.779C202.743 104.322 203.937 104.578 205.137 104.521H205.107Z" fill="white" />
                        <path d="M250 96.0503C250.025 98.0494 249.754 100.041 249.196 101.961C248.721 103.627 247.924 105.184 246.85 106.544C245.82 107.823 244.505 108.844 243.01 109.527C241.349 110.261 239.547 110.624 237.731 110.589C236.69 110.598 235.652 110.49 234.635 110.269C233.684 110.06 232.756 109.756 231.866 109.364V119.912H223.914V82.9783C224.627 82.767 225.444 82.5617 226.369 82.3745C227.294 82.1873 228.262 82.0062 229.277 81.8673C230.293 81.7285 231.321 81.6077 232.367 81.5171C233.414 81.4265 234.423 81.3843 235.391 81.3843C237.499 81.3516 239.595 81.7035 241.577 82.4228C243.301 83.0591 244.867 84.0601 246.167 85.3572C247.441 86.668 248.415 88.24 249.021 89.9641C249.7 91.9204 250.031 93.9801 250 96.0503ZM241.898 96.2616C241.898 93.8183 241.347 91.858 240.247 90.3807C239.14 88.9075 237.507 88.1708 235.337 88.1708C234.623 88.1708 233.97 88.1708 233.365 88.2493C232.761 88.3278 232.259 88.3641 231.872 88.4365V102.764C232.476 103.127 233.133 103.396 233.819 103.561C234.608 103.772 235.421 103.88 236.238 103.881C240.011 103.881 241.898 101.341 241.898 96.2616Z" fill="white" />
                        <path d="M32.9858 134.94C33.5696 134.926 34.1511 135.016 34.7032 135.206C35.1319 135.357 35.5177 135.61 35.8279 135.942C36.1119 136.275 36.3184 136.667 36.4326 137.09C36.5529 137.565 36.6119 138.054 36.608 138.545V144.432L36.0033 144.528C35.7433 144.57 35.447 144.613 35.1204 144.649C34.7939 144.685 34.4432 144.721 34.0622 144.746C33.6813 144.77 33.3003 144.794 32.9314 144.794C32.4349 144.798 31.9395 144.744 31.4559 144.631C31.04 144.534 30.6461 144.36 30.2949 144.118C29.9645 143.878 29.7037 143.555 29.539 143.182C29.3419 142.744 29.2468 142.267 29.2609 141.787C29.2492 141.32 29.3597 140.858 29.5814 140.447C29.7893 140.077 30.0866 139.766 30.4461 139.541C30.8343 139.299 31.2621 139.127 31.7099 139.034C32.2103 138.923 32.7214 138.869 33.2338 138.871C33.409 138.862 33.5846 138.862 33.7599 138.871C33.9413 138.871 34.1166 138.913 34.2799 138.937L34.7032 139.022L34.9572 139.076V138.605C34.9572 138.327 34.9268 138.05 34.8664 137.778C34.8091 137.518 34.6978 137.273 34.5399 137.059C34.3745 136.836 34.1536 136.659 33.8989 136.546C33.5637 136.409 33.2028 136.345 32.8407 136.359C32.3502 136.354 31.8603 136.394 31.3773 136.48C31.0598 136.53 30.7479 136.611 30.4461 136.721L30.2465 135.327C30.5953 135.192 30.9586 135.099 31.329 135.049C31.877 134.964 32.4314 134.927 32.9858 134.94ZM33.137 143.393C33.5301 143.393 33.8868 143.393 34.1952 143.393C34.4537 143.381 34.7106 143.346 34.9632 143.29V140.483C34.77 140.404 34.5663 140.353 34.3585 140.332C34.0324 140.282 33.7027 140.26 33.3729 140.266C33.1019 140.267 32.8312 140.285 32.5625 140.32C32.2917 140.353 32.0282 140.431 31.7825 140.549C31.5476 140.655 31.3405 140.815 31.1778 141.014C31.0113 141.243 30.9281 141.522 30.942 141.805C30.9193 142.05 30.9636 142.297 31.07 142.519C31.1765 142.742 31.3412 142.931 31.5467 143.067C32.0406 143.306 32.5904 143.406 33.137 143.357V143.393Z" fill="white" />
                        <path d="M48.1341 143.357C48.6604 143.389 49.1867 143.296 49.67 143.085C49.8281 143.004 49.9591 142.878 50.0471 142.724C50.1351 142.569 50.1764 142.393 50.1659 142.216C50.1717 142.025 50.13 141.836 50.0445 141.665C49.959 141.494 49.8324 141.347 49.6761 141.238C49.1716 140.904 48.6297 140.63 48.0615 140.422C47.6987 140.278 47.3541 140.133 47.0215 139.976C46.7088 139.842 46.4175 139.663 46.1568 139.444C45.9059 139.241 45.7 138.988 45.5521 138.702C45.3974 138.367 45.3228 138.001 45.3343 137.633C45.3208 137.252 45.3977 136.874 45.5584 136.529C45.7192 136.184 45.9594 135.881 46.2595 135.646C46.9933 135.126 47.8821 134.868 48.7812 134.916C49.0479 134.917 49.3144 134.933 49.5793 134.964C49.8454 134.964 50.0933 135.031 50.3231 135.067C50.5529 135.103 50.7585 135.157 50.9278 135.206C51.0971 135.254 51.2362 135.296 51.333 135.333L51.0246 136.782C50.7516 136.653 50.4657 136.554 50.1719 136.486C49.715 136.374 49.2455 136.321 48.7751 136.329C48.3545 136.321 47.9386 136.418 47.5657 136.613C47.4016 136.691 47.2641 136.815 47.1705 136.971C47.0769 137.127 47.0314 137.307 47.0396 137.488C47.037 137.676 47.0784 137.862 47.1605 138.031C47.2477 138.2 47.3718 138.346 47.5234 138.46C47.7104 138.6 47.9134 138.718 48.1281 138.81C48.37 138.919 48.6602 139.034 48.9988 139.155C49.4463 139.324 49.8454 139.493 50.2082 139.656C50.534 139.801 50.8374 139.992 51.1092 140.223C51.3569 140.44 51.5515 140.71 51.6777 141.014C51.8203 141.373 51.8881 141.757 51.8772 142.143C51.8989 142.528 51.8213 142.911 51.6518 143.257C51.4824 143.602 51.2269 143.899 50.9097 144.118C50.0749 144.614 49.1098 144.847 48.1401 144.788C47.4803 144.81 46.8207 144.739 46.1809 144.576C45.8547 144.49 45.5337 144.385 45.2195 144.263L45.5279 142.813L46.4531 143.139C46.9983 143.301 47.5657 143.374 48.1341 143.357Z" fill="white" />
                        <path d="M74.3295 134.94C74.9132 134.926 75.4947 135.016 76.0468 135.206C76.4755 135.357 76.8613 135.61 77.1715 135.942C77.4581 136.274 77.665 136.666 77.7762 137.09C77.9016 137.564 77.9626 138.054 77.9576 138.545V144.432L77.3529 144.528C77.0929 144.57 76.7966 144.613 76.4701 144.649C76.1436 144.685 75.7928 144.721 75.4119 144.746C75.0309 144.77 74.65 144.794 74.2751 144.794C73.7805 144.798 73.2872 144.743 72.8056 144.631C72.3897 144.534 71.9958 144.36 71.6446 144.118C71.3141 143.876 71.0516 143.554 70.8826 143.182C70.6905 142.742 70.5977 142.266 70.6106 141.787C70.5989 141.32 70.7093 140.858 70.9311 140.447C71.1367 140.078 71.4319 139.766 71.7897 139.541C72.1806 139.3 72.6102 139.129 73.0596 139.034C73.5599 138.923 74.071 138.869 74.5835 138.871C74.7528 138.871 74.9281 138.871 75.1095 138.871C75.291 138.871 75.4663 138.913 75.6296 138.937L76.0528 139.022L76.3068 139.076V138.605C76.3069 138.327 76.2765 138.05 76.2161 137.778C76.1588 137.518 76.0475 137.273 75.8896 137.059C75.7242 136.836 75.5033 136.659 75.2486 136.546C74.9114 136.408 74.5484 136.345 74.1843 136.359C73.6959 136.354 73.208 136.395 72.727 136.48C72.4077 136.531 72.0939 136.612 71.7897 136.721L71.5902 135.327C71.941 135.192 72.3063 135.099 72.6786 135.049C73.2246 134.964 73.7771 134.928 74.3295 134.94ZM74.4746 143.393C74.8737 143.393 75.2305 143.393 75.5389 143.393C75.7973 143.381 76.0542 143.346 76.3068 143.291V140.483C76.1137 140.404 75.91 140.353 75.7021 140.332C75.374 140.282 75.0423 140.26 74.7104 140.266C74.4415 140.267 74.1728 140.285 73.9061 140.32C73.6353 140.353 73.3718 140.431 73.1261 140.549C72.8912 140.655 72.6842 140.815 72.5214 141.014C72.3549 141.243 72.2717 141.522 72.2856 141.805C72.2629 142.05 72.3072 142.297 72.4136 142.519C72.5201 142.742 72.6848 142.931 72.8903 143.067C73.3824 143.305 73.9299 143.405 74.4746 143.357V143.393Z" fill="white" />
                        <path d="M100.833 144.776C100.038 144.832 99.2495 144.594 98.6197 144.106C98.3874 143.839 98.2109 143.528 98.1008 143.192C97.9907 142.856 97.9492 142.502 97.9787 142.149V130.846L99.6658 130.557V141.878C99.6607 142.109 99.6851 142.34 99.7384 142.566C99.7768 142.729 99.8583 142.879 99.9742 143.001C100.098 143.116 100.247 143.201 100.41 143.248C100.63 143.309 100.854 143.354 101.081 143.381L100.833 144.776Z" fill="white" />
                        <path d="M110.321 133.473C110.175 133.477 110.03 133.452 109.895 133.397C109.76 133.343 109.637 133.261 109.535 133.158C109.433 133.054 109.353 132.93 109.301 132.794C109.249 132.659 109.226 132.513 109.232 132.368C109.226 132.219 109.251 132.071 109.306 131.932C109.361 131.794 109.445 131.668 109.553 131.565C109.655 131.467 109.775 131.389 109.907 131.338C110.038 131.286 110.179 131.26 110.321 131.263C110.609 131.258 110.887 131.367 111.095 131.565C111.201 131.669 111.285 131.794 111.339 131.933C111.393 132.071 111.417 132.22 111.409 132.368C111.416 132.517 111.392 132.667 111.338 132.806C111.284 132.945 111.201 133.072 111.095 133.177C110.886 133.374 110.608 133.48 110.321 133.473ZM111.173 144.595H109.468V135.176H111.155L111.173 144.595Z" fill="white" />
                        <path d="M124.29 130.539C124.72 130.533 125.149 130.569 125.572 130.647C125.827 130.692 126.078 130.759 126.322 130.846L126.013 132.296C125.819 132.207 125.617 132.138 125.409 132.09C125.087 132.017 124.758 131.982 124.429 131.988C124.123 131.955 123.813 131.996 123.526 132.107C123.238 132.219 122.982 132.397 122.778 132.628C122.44 133.14 122.275 133.747 122.306 134.36V135.176H125.935V136.588H122.306V144.595H120.619V134.33C120.554 133.32 120.871 132.322 121.508 131.535C121.874 131.181 122.312 130.908 122.791 130.737C123.271 130.565 123.782 130.497 124.29 130.539Z" fill="white" />
                        <path d="M133.614 139.903C133.599 139.161 133.722 138.421 133.977 137.724C134.19 137.147 134.517 136.619 134.939 136.172C135.327 135.769 135.797 135.454 136.317 135.248C136.825 135.045 137.367 134.941 137.914 134.94C138.46 134.908 139.007 135 139.513 135.21C140.019 135.419 140.47 135.739 140.834 136.148C141.512 136.945 141.85 138.146 141.85 139.77V140.048C141.857 140.155 141.857 140.262 141.85 140.368H135.392C135.402 141.188 135.704 141.978 136.245 142.596C136.561 142.872 136.929 143.082 137.328 143.213C137.727 143.344 138.148 143.393 138.567 143.357C139.071 143.369 139.575 143.316 140.066 143.2C140.38 143.131 140.686 143.032 140.979 142.904L141.215 144.317C140.871 144.472 140.51 144.588 140.139 144.661C139.563 144.788 138.975 144.849 138.385 144.842C137.659 144.857 136.936 144.732 136.257 144.474C135.691 144.249 135.184 143.898 134.775 143.447C134.383 142.998 134.091 142.472 133.917 141.902C133.713 141.255 133.611 140.581 133.614 139.903ZM140.091 138.979C140.13 138.306 139.929 137.64 139.522 137.102C139.327 136.862 139.078 136.671 138.795 136.544C138.513 136.417 138.205 136.358 137.896 136.371C137.542 136.363 137.191 136.44 136.874 136.595C136.583 136.743 136.326 136.948 136.118 137.198C135.91 137.445 135.748 137.728 135.64 138.032C135.525 138.341 135.448 138.663 135.41 138.992L140.091 138.979Z" fill="white" />
                        <path d="M153.006 143.357C153.532 143.389 154.059 143.296 154.542 143.085C154.7 143.004 154.831 142.878 154.919 142.724C155.007 142.569 155.048 142.393 155.038 142.216C155.044 142.025 155.002 141.836 154.917 141.665C154.831 141.494 154.705 141.347 154.548 141.238C154.044 140.904 153.502 140.63 152.934 140.422C152.571 140.278 152.226 140.133 151.894 139.976C151.581 139.842 151.289 139.663 151.029 139.444C150.778 139.241 150.572 138.988 150.424 138.702C150.269 138.367 150.195 138.001 150.206 137.633C150.193 137.252 150.27 136.874 150.43 136.529C150.591 136.184 150.832 135.881 151.132 135.646C151.865 135.126 152.754 134.868 153.653 134.916C153.92 134.917 154.186 134.933 154.451 134.964C154.717 134.964 154.965 135.031 155.195 135.067C155.425 135.103 155.631 135.157 155.8 135.206C155.969 135.254 156.108 135.296 156.205 135.333L155.897 136.782C155.624 136.653 155.338 136.554 155.044 136.486C154.587 136.374 154.118 136.321 153.647 136.329C153.227 136.321 152.811 136.418 152.438 136.613C152.274 136.691 152.136 136.815 152.043 136.971C151.949 137.127 151.903 137.307 151.912 137.488C151.909 137.676 151.95 137.862 152.033 138.031C152.12 138.2 152.244 138.346 152.395 138.46C152.582 138.6 152.785 138.718 153 138.81C153.242 138.919 153.532 139.034 153.871 139.155C154.318 139.324 154.717 139.493 155.08 139.656C155.406 139.801 155.709 139.992 155.981 140.223C156.229 140.44 156.423 140.71 156.55 141.014C156.692 141.373 156.76 141.757 156.749 142.143C156.771 142.528 156.693 142.911 156.524 143.257C156.354 143.602 156.099 143.899 155.782 144.118C154.947 144.614 153.982 144.847 153.012 144.788C152.352 144.81 151.693 144.739 151.053 144.576C150.727 144.49 150.406 144.385 150.092 144.263L150.4 142.813L151.325 143.139C151.87 143.301 152.438 143.374 153.006 143.357Z" fill="white" />
                        <path d="M167.011 135.176H170.585V136.588H167.011V140.936C167.004 141.329 167.04 141.722 167.12 142.107C167.174 142.37 167.286 142.617 167.447 142.832C167.589 143.004 167.778 143.132 167.991 143.2C168.238 143.276 168.495 143.313 168.753 143.309C169.163 143.321 169.572 143.264 169.962 143.14L170.603 142.892L170.93 144.287C170.642 144.413 170.345 144.518 170.041 144.601C169.569 144.735 169.08 144.8 168.59 144.794C168.051 144.813 167.513 144.729 167.005 144.546C166.607 144.402 166.257 144.149 165.995 143.816C165.729 143.459 165.547 143.046 165.463 142.608C165.353 142.064 165.3 141.509 165.306 140.954V132.549L166.993 132.259L167.011 135.176Z" fill="white" />
                        <path d="M178.15 146.376C178.318 146.449 178.492 146.507 178.67 146.551C178.867 146.602 179.07 146.628 179.274 146.629C179.83 146.664 180.382 146.507 180.835 146.183C181.281 145.789 181.629 145.297 181.85 144.746C181.089 143.297 180.379 141.761 179.722 140.139C179.067 138.53 178.518 136.88 178.077 135.2H179.891C180.024 135.743 180.188 136.329 180.375 136.957C180.562 137.585 180.768 138.231 180.98 138.895C181.191 139.559 181.457 140.223 181.723 140.887C181.99 141.552 182.268 142.192 182.558 142.807C183.018 141.539 183.421 140.284 183.767 139.04C184.114 137.796 184.435 136.516 184.729 135.2H186.47C186.035 136.975 185.551 138.682 185.019 140.32C184.487 141.958 183.912 143.488 183.296 144.909C183.086 145.396 182.835 145.865 182.546 146.309C182.311 146.677 182.019 147.005 181.681 147.282C181.368 147.535 181.009 147.726 180.623 147.843C180.189 147.969 179.739 148.03 179.287 148.024C179.148 148.036 179.008 148.036 178.869 148.024C178.727 148.009 178.585 147.985 178.446 147.952C178.307 147.952 178.18 147.891 178.065 147.855C177.98 147.83 177.898 147.8 177.817 147.765L178.15 146.376Z" fill="white" />
                        <path d="M197.633 144.776C196.838 144.832 196.05 144.594 195.42 144.106C195.183 143.838 195.003 143.525 194.891 143.185C194.779 142.846 194.737 142.487 194.767 142.131V130.828L196.454 130.539V141.86C196.449 142.091 196.473 142.322 196.527 142.548C196.565 142.711 196.646 142.861 196.762 142.983C196.886 143.098 197.035 143.183 197.198 143.23C197.418 143.291 197.642 143.336 197.869 143.363L197.633 144.776Z" fill="white" />
                        <path d="M205.761 139.903C205.745 139.161 205.868 138.421 206.123 137.724C206.336 137.147 206.663 136.619 207.085 136.172C207.473 135.769 207.943 135.454 208.464 135.248C208.971 135.045 209.513 134.941 210.06 134.94C210.606 134.908 211.153 135 211.659 135.21C212.165 135.419 212.617 135.739 212.981 136.148C213.658 136.945 213.997 138.146 213.997 139.77V140.048C214.003 140.155 214.003 140.262 213.997 140.368H207.538C207.548 141.188 207.85 141.978 208.391 142.596C208.707 142.872 209.075 143.082 209.474 143.213C209.873 143.344 210.295 143.393 210.713 143.357C211.218 143.369 211.722 143.316 212.213 143.2C212.526 143.131 212.832 143.032 213.126 142.904L213.362 144.317C213.017 144.472 212.656 144.588 212.285 144.661C211.71 144.788 211.121 144.849 210.532 144.842C209.805 144.857 209.082 144.732 208.403 144.474C207.837 144.249 207.331 143.898 206.922 143.447C206.529 142.998 206.237 142.472 206.063 141.902C205.859 141.255 205.757 140.581 205.761 139.903ZM212.237 138.979C212.276 138.306 212.075 137.64 211.668 137.102C211.473 136.862 211.224 136.671 210.942 136.544C210.659 136.417 210.351 136.358 210.042 136.371C209.688 136.363 209.338 136.44 209.02 136.595C208.73 136.743 208.473 136.948 208.264 137.198C208.056 137.445 207.894 137.728 207.786 138.032C207.671 138.341 207.594 138.663 207.556 138.992L212.237 138.979Z" fill="white" />
                    </g>
                    <defs>
                        <clipPath id="clip0_2222_26086">
                            <rect width="250" height="148" fill="white" />
                        </clipPath>
                    </defs>
                </svg>